<svg id="Layer_1" data-name="Layer 1" xmlns="http://www.w3.org/2000/svg" xmlns:xlink="http://www.w3.org/1999/xlink" viewBox="0 0 1214.48 1767.66"><defs><style>.cls-1{fill:none;}.cls-2{clip-path:url(#clip-path);}.cls-3{fill:url(#linear-gradient);}.cls-4{fill:url(#linear-gradient-2);}.cls-5{fill:url(#linear-gradient-3);}.cls-6{fill:#2c41a1;}.cls-7{fill:url(#linear-gradient-4);}</style><clipPath id="clip-path" transform="translate(70.48 -0.45)"><rect class="cls-1" x="1" width="1080" height="1786"/></clipPath><linearGradient id="linear-gradient" x1="540.73" y1="1777.88" x2="540.73" y2="1280.12" gradientUnits="userSpaceOnUse"><stop offset="0" stop-color="#e5e8ff"/><stop offset="0.01" stop-color="#e5e8ff"/><stop offset="0.59" stop-color="#f8f9ff"/><stop offset="1" stop-color="#fff"/></linearGradient><linearGradient id="linear-gradient-2" x1="540.73" y1="1804.14" x2="540.73" y2="1270.6" xlink:href="#linear-gradient"/><linearGradient id="linear-gradient-3" x1="9932.15" y1="-7315.98" x2="9932.15" y2="-6782.46" gradientTransform="translate(10472.87 -5528.51) rotate(180)" xlink:href="#linear-gradient"/><linearGradient id="linear-gradient-4" x1="131.51" y1="768.23" x2="901.41" y2="-149.3" gradientUnits="userSpaceOnUse"><stop offset="0.11" stop-color="#fff"/><stop offset="1" stop-color="#e5e8ff"/></linearGradient></defs><g class="cls-2"><path class="cls-3" d="M1071.19,1333.79c-141.69-30.94-341-48.26-561.34-44.38-194.42,3.42-371.8,22.76-507.3,51.91V1726.2c140.65,29,334,45.12,547.17,41.37,205.07-3.6,391.18-24.91,529.19-56.78V1399.57Z" transform="translate(70.48 -0.45)"/><path class="cls-4" d="M1071.19,1333.79c-141.69-30.94-341-48.26-561.34-44.38-194.42,3.42-371.8,22.76-507.3,51.91V1726.2c140.65,29,334,45.12,547.17,41.37,205.07-3.6,391.18-24.91,529.19-56.78V1399.57Z" transform="translate(70.48 -0.45)"/><path class="cls-5" d="M1078.91,1334.61c-141.69-30.93-348.68-49.08-569.06-45.2-194.42,3.42-371.8,22.76-507.3,51.91V1726.2c140.65,29,334,45.12,547.17,41.37,205.07-3.6,391.18-24.91,529.19-56.78V1334.61Z" transform="translate(70.48 -0.45)"/><path class="cls-6" d="M1065.55,339.43l51,450.6L1144,1032.88q-23.64,6.91-49.78,13.33c-138.7,34-327.69,56.86-536.3,60.67-220.37,4-419.64-14-561.33-46.07L-31.11,816-70.48,468Z" transform="translate(70.48 -0.45)"/><path class="cls-7" d="M0,.45V657.88q22.92,4,48.14,7.21c133.79,17.17,313.59,18.52,509.78,0,207.26-19.57,392.38-57.5,522-102.57V.45Z" transform="translate(70.48 -0.45)"/></g></svg>