<svg xmlns="http://www.w3.org/2000/svg" width="62.7" height="37" viewBox="0 0 62.7 37"> <g id="Group_2245" data-name="Group 2245" transform="translate(267.2 -409.7) rotate(90)"> <path id="Path_3546" data-name="Path 3546" d="M414.7,204.5a5,5,0,1,0,5,5A4.951,4.951,0,0,0,414.7,204.5Z" fill="#f8f9fb"></path> <path id="Path_3547" data-name="Path 3547" d="M414.7,217.7a5,5,0,1,0,5,5A4.951,4.951,0,0,0,414.7,217.7Z" fill="#f8f9fb"></path> <path id="Path_3548" data-name="Path 3548" d="M414.7,230.8a5,5,0,1,0,5,5A5.015,5.015,0,0,0,414.7,230.8Z" fill="#f8f9fb"></path> <path id="Path_3549" data-name="Path 3549" d="M414.7,244a5,5,0,1,0,5,5A4.951,4.951,0,0,0,414.7,244Z" fill="#f8f9fb"></path> <path id="Path_3550" data-name="Path 3550" d="M414.7,257.2a5,5,0,1,0,5,5A4.951,4.951,0,0,0,414.7,257.2Z" fill="#f8f9fb"></path> <path id="Path_3551" data-name="Path 3551" d="M428.2,217.7a5,5,0,1,0,5,5A4.951,4.951,0,0,0,428.2,217.7Z" fill="#f8f9fb"></path> <path id="Path_3552" data-name="Path 3552" d="M428.2,230.8a5,5,0,1,0,5,5A5.015,5.015,0,0,0,428.2,230.8Z" fill="#f8f9fb"></path> <path id="Path_3553" data-name="Path 3553" d="M428.2,244a5,5,0,1,0,5,5A4.951,4.951,0,0,0,428.2,244Z" fill="#f8f9fb"></path> <path id="Path_3554" data-name="Path 3554" d="M441.7,230.8a5,5,0,1,0,5,5A5.015,5.015,0,0,0,441.7,230.8Z" fill="#ed1c24"></path> </g> </svg>