<?xml version="1.0" encoding="UTF-8"?>
<svg id="Layer_2" data-name="Layer 2" xmlns="http://www.w3.org/2000/svg" viewBox="0 0 40.5 40.5">
  <defs>
    <style>
      .cls-1 {
        fill: #2f439b;
        stroke: #fff;
        stroke-miterlimit: 10;
        stroke-width: .5px;
      }
    </style>
  </defs>
  <g id="Layer_1-2" data-name="Layer 1">
    <path id="path7" class="cls-1" d="M20.25,.25C9.21,.26,.26,9.21,.25,20.25c0,5.34,2.08,10.36,5.86,14.14,3.74,3.76,8.83,5.87,14.14,5.86,11.04-.01,19.99-8.96,20-20-.01-11.04-8.96-19.99-20-20Zm0,2.85c9.47,.01,17.14,7.68,17.15,17.15,0,4.31-1.64,8.46-4.58,11.62-1.94-2.3-4.47-4.03-7.31-5,2-1.62,3.16-4.06,3.17-6.63-.01-4.72-3.85-8.53-8.57-8.52,0,0-.02,0-.02,0-4.72,.01-8.53,3.85-8.52,8.57,0,0,0,.01,0,.02,0,2.65,1.24,4.99,3.15,6.55-2.79,.95-5.27,2.62-7.2,4.84-2.84-3.13-4.41-7.22-4.4-11.45,.01-9.47,7.68-17.14,17.15-17.15Zm-.1,11.46c3.13,0,5.67,2.54,5.67,5.74,0,3.05-2.43,5.55-5.48,5.65-.08,0-.16-.02-.25-.02-.07,0-.14,.01-.21,.02-3.07-.12-5.48-2.65-5.46-5.72,0-3.13,2.54-5.67,5.74-5.67h0Zm-.27,14.23c.07,0,.14,.02,.21,.02h.07c.06,0,.11-.02,.18-.02,4.03,.07,7.82,1.89,10.39,5-2.99,2.33-6.67,3.6-10.46,3.6-3.88,0-7.64-1.31-10.67-3.74,2.57-3.03,6.32-4.8,10.3-4.86Z"/>
  </g>
</svg>