<svg xmlns="http://www.w3.org/2000/svg" width="75.752" height="96.679" viewBox="0 0 75.752 96.679">
  <g id="noun_cash_flow_2409693" data-name="noun_cash flow_2409693" transform="translate(-6.2 -1.012)">
    <g id="Group_2587" data-name="Group 2587" transform="translate(6.2 1.012)">
      <path id="Path_16583" data-name="Path 16583" d="M42.454,59.451A48.532,48.532,0,0,0,76.5,45.55V48.37a2.015,2.015,0,0,0,4.029,0V40.715A1.9,1.9,0,0,0,78.516,38.7H70.861a2.015,2.015,0,1,0,0,4.029h2.418a44.325,44.325,0,0,1-62.253-.2A1.994,1.994,0,0,0,8.2,45.348,49.573,49.573,0,0,0,42.454,59.451Z" transform="translate(-4.779 37.228)" fill="#2f439a"/>
      <path id="Path_16584" data-name="Path 16584" d="M8.215,10.053A1.9,1.9,0,0,0,6.2,12.068v7.656a1.9,1.9,0,0,0,2.015,2.015H15.87a1.9,1.9,0,0,0,2.015-2.015,1.9,1.9,0,0,0-2.015-2.015H13.05a44.325,44.325,0,0,1,62.253.2,1.994,1.994,0,0,0,2.821-2.821,48.215,48.215,0,0,0-67.894-.2V12.068A2.167,2.167,0,0,0,8.215,10.053Z" transform="translate(-6.2 -1.012)" fill="#2f439a"/>
      <path id="Path_16585" data-name="Path 16585" d="M29.877,32.726c-1.007-.2-2.418.2-3.828-1.41a3.325,3.325,0,0,1-1.007-3.022,4.406,4.406,0,0,1,4.432-4.029,3.525,3.525,0,0,1,2.821,1.41,2,2,0,1,0,3.022-2.619,8.966,8.966,0,0,0-4.231-2.418V17.415a2.015,2.015,0,0,0-4.029,0v3.223a7.925,7.925,0,0,0-5.843,7.454c-.4,5.037,3.626,8.663,7.051,8.663h.6a3.915,3.915,0,0,1,3.223,1.612,4.23,4.23,0,0,1-3.022,6.648h-.4a3.625,3.625,0,0,1-3.022-1.41,2,2,0,0,0-3.022,2.619,8.966,8.966,0,0,0,4.231,2.418v3.223a2.015,2.015,0,0,0,4.029,0V48.441a8.222,8.222,0,0,0,4.432-12.692A10.38,10.38,0,0,0,29.877,32.726Z" transform="translate(9.006 13.586)" fill="#2f439a"/>
      <path id="Path_16586" data-name="Path 16586" d="M41.235,9A32.235,32.235,0,1,0,73.469,41.235,32.329,32.329,0,0,0,41.235,9Zm0,60.44A28.205,28.205,0,1,1,69.44,41.235,28.288,28.288,0,0,1,41.235,69.44Z" transform="translate(-3.359 7.092)" fill="#2f439a"/>
    </g>
  </g>
</svg>
