<svg xmlns="http://www.w3.org/2000/svg" width="69.782" height="69.782" viewBox="0 0 69.782 69.782">
  <g id="noun_histogram_2435447" transform="translate(1 1)">
    <path id="Path_16529" data-name="Path 16529" d="M68.308,60.941H63.151V24.1H66.1a1.474,1.474,0,0,0,1.179-2.358L58.436,9.957a1.525,1.525,0,0,0-2.358,0L47.237,21.745A1.474,1.474,0,0,0,48.416,24.1h2.947V60.941H45.712V30a1.474,1.474,0,0,0-1.474-1.474H35.4A1.474,1.474,0,0,0,33.924,30V60.941H27.787V37.364a1.474,1.474,0,0,0-1.474-1.474H17.472A1.474,1.474,0,0,0,16,37.364V60.941H10.841V3.474a1.474,1.474,0,1,0-2.947,0V60.941H3.474a1.474,1.474,0,1,0,0,2.947H7.894v4.421a1.474,1.474,0,1,0,2.947,0V63.888H68.308a1.474,1.474,0,1,0,0-2.947Z" transform="translate(-2 -2)" fill="none" stroke="#2f439a" stroke-width="2"/>
    <path id="Path_16530" data-name="Path 16530" d="M27.879,14.727a2.21,2.21,0,0,1-2.056-1.334L23.26,14.867a5.688,5.688,0,0,0,2.755,2.49v1.378h2.947V17.49a4.089,4.089,0,0,0,2.947-3.22A3.479,3.479,0,0,0,29.3,10.314c-.575-.2-1.054-.346-1.474-.472-1.09-.324-1.2-.39-1.356-.648a.847.847,0,0,1,.25-1.105,1.238,1.238,0,0,1,.921-.037,2.262,2.262,0,0,1,1.474,1.2L31.77,7.964A5.194,5.194,0,0,0,28.963,5.4V4H26.015V5.2A3.485,3.485,0,0,0,25,5.68a3.816,3.816,0,0,0-1.054,5.091,4.58,4.58,0,0,0,3.006,1.893c.383.118.818.25,1.341.435.7.243.737.309.656.862A1.407,1.407,0,0,1,27.879,14.727Z" transform="translate(-7.597 -2.526)" fill="#2f439a"/>
  </g>
</svg>
