<svg id="noun_24_Hours_Support_1585199" data-name="noun_24 Hours Support_1585199" xmlns="http://www.w3.org/2000/svg" width="62.207" height="66.231" viewBox="0 0 62.207 66.231">
  <g id="Group_2567" data-name="Group 2567" transform="translate(0)">
    <path id="Path_16528" data-name="Path 16528" d="M34,12.05l-.819,16.815,10,9.374,2.379-2.48-7.389-8.6L37.433,12.05Zm-20.143.735,1.231,8.9L10.961,24.4l.88,2.715a58.665,58.665,0,0,0,4.982,11.22,58.059,58.059,0,0,0,7.223,9.917l1.911,2.117,4.418-2.215,7.091,5.514-4.237,7.338C24.867,55.63,18.075,49.525,12.913,40.582s-7.051-17.872-7.529-27.8Zm5.267,10.729-2-14.478H1.519C1.7,21.171,3.514,31.8,9.667,42.458S24.113,60,34.54,66.231l7.8-13.514L30.806,43.746l-3.98,2a54.074,54.074,0,0,1-6.757-9.278,54.68,54.68,0,0,1-4.663-10.5Zm8.068-18.26a24.132,24.132,0,0,1,6.664-1.461V7.146h3.724V3.8A24.288,24.288,0,0,1,59.932,26.151H56.581v3.724h3.351A24.294,24.294,0,0,1,43.695,50.966l1.221,3.506A28.014,28.014,0,1,0,17.306,6.907L19.748,9.7A24.306,24.306,0,0,1,27.189,5.255Z" transform="translate(-1.519)" fill="#2f439a" fill-rule="evenodd"/>
  </g>
</svg>
