<svg xmlns="http://www.w3.org/2000/svg" width="95.8" height="96.184" viewBox="0 0 95.8 96.184">
  <g id="noun_competition_2091869" transform="translate(-6 -6)">
    <path id="Path_16594" data-name="Path 16594" d="M51.343,13.449,53,16.811l.767,1.554,1.715.249,3.711.54-2.684,2.617-1.241,1.21.293,1.708.634,3.7-3.318-1.745-1.536-.807-1.534.807-3.318,1.745.634-3.7.293-1.708-1.241-1.21-2.684-2.617,3.711-.54,1.715-.249.767-1.554,1.657-3.362m0-7.449-4.615,9.352-10.32,1.5,7.467,7.28L42.113,34.41l9.23-4.853,9.231,4.852L58.81,24.13l7.467-7.28-10.32-1.5L51.343,6Z" transform="translate(3.004)" fill="#2f439a"/>
    <path id="Path_16595" data-name="Path 16595" d="M20.936,27.629,22.6,30.991l.767,1.554,1.715.249,3.711.54L26.1,35.951l-1.241,1.21.293,1.708.634,3.7-3.318-1.745-1.534-.807-1.534.807-3.318,1.745.634-3.7.293-1.708-1.241-1.21-2.684-2.617,3.711-.54,1.715-.249.767-1.554,1.655-3.362m0-7.449-4.615,9.352L6,31.032l7.467,7.28L11.7,48.59l9.231-4.852,9.231,4.852L28.4,38.311l7.467-7.28-10.32-1.5L20.936,20.18Z" transform="translate(0 1.401)" fill="#2f439a"/>
    <path id="Path_16596" data-name="Path 16596" d="M80.936,37.917,82.6,41.279l.767,1.554,1.715.249,3.711.54L86.1,46.239l-1.241,1.21.293,1.709.634,3.7-3.318-1.745L80.938,50.3l-1.534.807-3.318,1.745.634-3.7.293-1.708-1.241-1.21-2.684-2.617,3.711-.54,1.715-.249.767-1.554,1.655-3.363m0-7.448-4.615,9.352L66,41.32l7.467,7.28L71.7,58.877l9.231-4.852,9.231,4.852L88.4,48.6l7.467-7.28-10.32-1.5-4.616-9.351Z" transform="translate(5.928 2.418)" fill="#2f439a"/>
    <path id="Path_16597" data-name="Path 16597" d="M99.7,91.31V66.056L87.064,58.631,74.428,66.056V96.293H44.761V41.57l9.34-5.486,9.34,5.486V91.31h3.3V39.685L54.1,32.26,41.464,39.685V96.293H11.8V56.953l9.34-5.486,9.34,5.486V91.31h3.3V55.068L21.136,47.643,8.5,55.068V99.589H99.7v-3.3H77.725V67.941l9.34-5.486,9.34,5.486V91.31Z" transform="translate(0.247 2.595)" fill="#2f439a"/>
  </g>
</svg>
