<?xml version="1.0" encoding="UTF-8"?>
<svg id="Layer_2" data-name="Layer 2" xmlns="http://www.w3.org/2000/svg" viewBox="0 0 56 55.97">
  <defs>
    <style>
      .cls-1 {
        fill: #2f439b;
      }
    </style>
  </defs>
  <g id="Layer_1-2" data-name="Layer 1">
    <path class="cls-1" d="M56,12.17c0-1.12-.7-2.12-1.75-2.51,.23-.55,.27-1.16,.11-1.74-.31-1.17-1.37-1.99-2.58-1.99h0c.1-.28,.15-.57,.15-.87,0-1.39-1.06-2.54-2.44-2.66-.08,0-.16,0-.24,0H31.28c-.74,0-1.46,.25-2.04,.7-.32-.31-.75-.48-1.2-.47h-2.06c-.9,0-1.65,.7-1.71,1.6h-5.86c0-1.48-1.2-2.68-2.68-2.69-.36,0-.72,.07-1.05,.21C14.17,.36,12.62-.35,11.24,.17c-.73,.27-1.31,.85-1.58,1.58-.55-.24-1.16-.28-1.74-.11-1.17,.31-1.99,1.37-1.99,2.58v.03c-.28-.1-.57-.15-.87-.15-1.39,0-2.54,1.06-2.66,2.44,0,.08,0,.16,0,.24V24.69c0,.74,.25,1.46,.7,2.04-.31,.32-.48,.75-.47,1.2v2.07c0,.9,.7,1.65,1.6,1.71v5.86h0c-1.47,0-2.67,1.19-2.69,2.66,0,.36,.07,.72,.21,1.05-1.39,.52-2.09,2.06-1.58,3.45,.27,.73,.85,1.31,1.58,1.58-.23,.55-.27,1.16-.11,1.74,.31,1.17,1.37,1.99,2.58,1.99h.03c-.1,.28-.15,.57-.15,.87,0,1.39,1.06,2.54,2.44,2.66,.08,0,.16,0,.24,0H24.69c.74,0,1.46-.25,2.04-.7,.32,.31,.75,.48,1.2,.47h2.07c.9,0,1.65-.7,1.71-1.6h5.86c0,1.47,1.19,2.67,2.66,2.69,.36,0,.72-.07,1.05-.21,.52,1.39,2.06,2.09,3.45,1.58,.73-.27,1.31-.85,1.58-1.58,.55,.24,1.16,.28,1.74,.11,1.17-.31,1.99-1.37,1.99-2.58h0c.28,.1,.57,.15,.87,.15,1.39,0,2.54-1.06,2.66-2.44,0-.08,0-.16,0-.24V31.28c0-.74-.25-1.46-.7-2.04,.31-.32,.48-.75,.47-1.2v-2.06c0-.9-.7-1.65-1.6-1.71v-5.86h0c1.48,0,2.68-1.2,2.69-2.68,0-.36-.07-.72-.21-1.05,1.06-.38,1.77-1.39,1.77-2.51Zm-5.13,13.89h.7v1.93h-11.76v-1.92h11.06Zm-12.49,3.06c-.07,.08-.13,.16-.19,.24v.04h0l-6.76,9.37c-.32-.48-.86-.77-1.44-.77h-2.07c-.39,0-.76,.13-1.07,.37l-.24-.19h-.04l-9.37-6.76c.48-.32,.77-.86,.77-1.44v-2.07c0-.39-.13-.76-.37-1.07,.07-.08,.13-.16,.19-.24v-.04h0l6.76-9.37c.32,.48,.86,.77,1.44,.77h2.07c.39,0,.76-.13,1.07-.37l.24,.19h.04l9.37,6.76c-.48,.32-.77,.86-.77,1.44v2.07c0,.39,.13,.76,.37,1.07Zm-33.27,.79h-.7v-1.93h11.76v1.92H5.11ZM26.06,4.41h1.93v11.76h-1.92V4.41h0Zm-1.8,1.6v6.95c-1.12-.8-2.67-.6-3.56,.44l-2.29,2.68V6.01h5.85Zm-20.07,.75v-.09c.06-.48,.49-.82,.97-.76,.43,.05,.76,.41,.77,.85V15.6c0,.5,.4,.9,.9,.9s.9-.4,.9-.9V4.18c0-.4,.28-.74,.67-.84,.07,0,.15,0,.22,0,.48,0,.88,.39,.88,.88V13.23c0,.5,.4,.9,.9,.9s.9-.4,.9-.9V2.65c0-.48,.39-.88,.88-.88,.48,0,.88,.39,.88,.88h0V13.23c0,.5,.4,.9,.9,.9s.9-.4,.9-.9V4.22c0-.48,.38-.87,.87-.88,.24,0,.48,.1,.64,.28,.15,.16,.24,.38,.24,.6v14.3c0,.38,.24,.72,.6,.85,.35,.13,.75,.03,1-.26l3.87-4.53c.32-.37,.87-.41,1.24-.09,.17,.15,.28,.36,.3,.59,.02,.23-.06,.46-.21,.64l-.04,.06-6.98,9.71s-.03,.04-.05,.07c-.28,.39-.72,.63-1.2,.64H5.68c-.83,0-1.5-.67-1.5-1.5V6.76Zm1.8,24.96h6.97c-.8,1.12-.6,2.67,.44,3.56l2.68,2.29H6.01l-.02-5.85Zm18.71,20.07H6.67c-.48-.06-.82-.49-.76-.97,.05-.43,.41-.76,.85-.77H15.6c.5,0,.9-.4,.9-.9s-.4-.9-.9-.9H4.18c-.4,0-.74-.28-.84-.67,0-.07,0-.15,0-.22,0-.48,.39-.88,.88-.88H13.23c.5,0,.9-.4,.9-.9s-.4-.9-.9-.9H2.65c-.48,0-.88-.39-.88-.88,0-.48,.39-.88,.88-.88H13.23c.5,0,.9-.4,.9-.9s-.4-.9-.9-.9H4.22c-.48,0-.87-.38-.88-.87,0-.24,.1-.48,.28-.64,.16-.15,.38-.24,.6-.24h14.3c.38,0,.72-.24,.85-.6,.13-.35,.03-.75-.26-1l-4.53-3.87c-.37-.32-.41-.87-.09-1.24,.15-.17,.36-.28,.59-.3,.23-.02,.46,.06,.64,.21l.06,.04,9.71,6.97,.07,.05c.39,.28,.63,.72,.64,1.2v9.45c0,.83-.67,1.5-1.5,1.5Zm5.22-.23h-1.93v-11.76h1.92v11.76h0Zm1.8-1.6v-6.95c1.12,.8,2.67,.6,3.56-.44l2.29-2.68v10.07h-5.85Zm20.07-.75v.09c-.06,.48-.49,.82-.97,.76-.43-.05-.76-.41-.77-.85v-8.84c0-.5-.4-.9-.9-.9s-.9,.4-.9,.9v11.42c0,.4-.28,.74-.67,.84-.07,.02-.15,.03-.22,.04-.48,0-.88-.39-.88-.88v-9.02c0-.5-.4-.9-.9-.9s-.9,.4-.9,.9v10.58c0,.48-.39,.88-.88,.88-.48,0-.88-.39-.88-.88h0v-10.62c0-.5-.4-.9-.9-.9s-.9,.4-.9,.9v9.02c0,.48-.38,.87-.87,.88-.24,0-.48-.1-.64-.28-.15-.16-.24-.38-.24-.6v-14.3c0-.38-.24-.72-.6-.85-.35-.13-.75-.03-1,.26l-3.87,4.53c-.15,.18-.37,.29-.6,.3-.23,.02-.46-.06-.64-.2-.18-.15-.29-.37-.31-.6-.02-.23,.06-.46,.21-.64l.04-.06,6.97-9.71s.03-.04,.05-.07c.28-.39,.72-.63,1.2-.64h9.46c.83,0,1.5,.67,1.5,1.5v17.93Zm-1.8-24.96h-6.97c.8-1.12,.6-2.67-.44-3.56l-2.68-2.29h10.07l.02,5.85Zm3.35-11.21h-10.6c-.5,0-.9,.4-.9,.9s.4,.9,.9,.9h9.02c.48,0,.87,.38,.88,.87,0,.24-.1,.48-.28,.64-.16,.15-.38,.24-.6,.24h-14.3c-.38,0-.72,.24-.85,.6-.13,.35-.03,.75,.26,1l4.53,3.87c.37,.32,.41,.87,.09,1.24-.15,.17-.36,.28-.59,.3-.23,.02-.46-.06-.64-.21l-.06-.04-9.71-6.98-.07-.05c-.39-.28-.63-.72-.64-1.2V5.68c0-.83,.67-1.5,1.5-1.5h18.02c.48,.06,.82,.49,.76,.97-.05,.43-.41,.76-.85,.77h-8.84c-.5,0-.9,.4-.9,.9s.4,.9,.9,.9h11.42c.4,0,.74,.28,.84,.67,.02,.07,.03,.15,.04,.22,0,.48-.39,.88-.88,.88h-9.02c-.5,0-.9,.4-.9,.9s.4,.9,.9,.9h10.58c.48,0,.88,.39,.88,.88,0,.48-.39,.88-.88,.88h-.01Z"/>
  </g>
</svg>