<?xml version="1.0" encoding="UTF-8"?>
<svg id="Layer_2" data-name="Layer 2" xmlns="http://www.w3.org/2000/svg" viewBox="0 0 55.77 56">
  <defs>
    <style>
      .cls-1 {
        fill: #2f439b;
      }
    </style>
  </defs>
  <g id="Layer_1-2" data-name="Layer 1">
    <g>
      <path class="cls-1" d="M54.84,0h-18.59c-.51,0-.93,.42-.93,.93V19.52c0,.51,.42,.93,.93,.93h18.59c.51,0,.93-.42,.93-.93V.93c0-.51-.42-.93-.93-.93h0Zm-.93,18.59h-16.73V1.86h16.73V18.59Z"/>
      <path class="cls-1" d="M10.22,55.77c5.64,0,10.22-4.59,10.22-10.22s-4.59-10.22-10.22-10.22S0,39.91,0,45.55s4.59,10.22,10.22,10.22h0Zm0-18.59c4.61,0,8.36,3.75,8.36,8.36s-3.75,8.36-8.36,8.36S1.86,50.16,1.86,45.55s3.75-8.36,8.36-8.36h0Z"/>
      <g>
        <path class="cls-1" d="M55.3,37.36l-9.76-5.63c-.29-.16-.64-.16-.93,0l-9.76,5.63c-.29,.17-.46,.47-.46,.81v11.27c0,.33,.18,.64,.46,.8l9.76,5.63c.29,.17,.64,.17,.93,0l9.76-5.63c.29-.17,.46-.48,.46-.81v-11.27c0-.33-.18-.64-.46-.81h0Zm-1.39,11.54l-8.83,5.1-8.83-5.1v-10.19l8.83-5.1,8.83,5.1v10.19Z"/>
        <path class="cls-1" d="M11.16,0c-.34-.04-.66,.18-.82,.48L.12,19.08c-.16,.29-.15,.63,.01,.92,.17,.28,.47,.46,.8,.46H20.91c.32,0,.62-.17,.79-.45,.17-.28,.18-.62,.03-.91L11.98,.5c-.16-.3-.47-.49-.81-.5h0ZM2.5,18.59L11.13,2.9l8.24,15.7H2.5Z"/>
      </g>
      <path class="cls-1" d="M27.61,4.92l-1.31,1.31,3.06,3.06h-7.05v1.86h7.05l-3.06,3.06,1.31,1.31,4.65-4.65c.17-.17,.27-.41,.27-.66s-.1-.48-.27-.66l-4.65-4.65Z"/>
      <path class="cls-1" d="M27.61,49.92l4.65-4.65c.17-.17,.27-.41,.27-.66s-.1-.48-.27-.66l-4.65-4.65-1.31,1.31,3.06,3.06h-7.05v1.86h7.05l-3.06,3.06,1.31,1.31Z"/>
      <path class="cls-1" d="M46.47,25.1v-2.79h-1.86v1.86H10.22c-.51,0-.93,.42-.93,.93v5.19l-3.06-3.06-1.31,1.31,4.65,4.65c.17,.17,.41,.27,.66,.27s.48-.1,.66-.27l4.65-4.65-1.31-1.31-3.06,3.06v-4.26H45.54c.51,0,.93-.42,.93-.93h0Z"/>
    </g>
  </g>
</svg>