<svg xmlns="http://www.w3.org/2000/svg" width="90.653" height="60.465" viewBox="0 0 90.653 60.465">
  <g id="noun_Handshake_1035120" transform="translate(-14.006 -26.975)">
    <g id="Group_2590" data-name="Group 2590" transform="translate(14.006 26.976)">
      <path id="Path_16598" data-name="Path 16598" d="M30.209,27.006a2.518,2.518,0,0,0-1.849,1.023L14.471,46.915A2.518,2.518,0,0,0,14.9,50.3l12.63,10.663A7.544,7.544,0,0,0,31.625,74.85a7.321,7.321,0,0,0,1.731-.236,6.3,6.3,0,0,0,5.823,4.013H39.3a6.357,6.357,0,0,0,6.177,5.036,6.116,6.116,0,0,0,1.692-.275,6.327,6.327,0,0,0,5.862,4.052,6.222,6.222,0,0,0,3.423-1.062,8.6,8.6,0,0,0,4.131,1.062,7.376,7.376,0,0,0,5.194-2.321,8.169,8.169,0,0,0,1.967-2.951A6.5,6.5,0,0,0,69.4,82.4a6.951,6.951,0,0,0,6.217-3.935,6.37,6.37,0,0,0,1.338.157,6.946,6.946,0,0,0,6.335-4.249,7.156,7.156,0,0,0,10.033-6.846q0-.02,0-.039a7.5,7.5,0,0,0-3.462-5.941v-.039l-.118-.079-23.8-18.807a2.518,2.518,0,0,0-3.148.039s-1.82,1.465-3.935,2.951c-1.057.743-2.2,1.472-3.148,2.007s-1.869.807-1.652.787a4.932,4.932,0,0,1-2.125-.236,2.369,2.369,0,0,1-.9-.63l9.4-10.426A2.518,2.518,0,0,0,61.8,35.977a8.927,8.927,0,0,1,5.075-1.416c8.066,0,13.276-.013,20.381-2.164L98.708,47.977l-5.744,4.761a2.529,2.529,0,1,0,3.226,3.9l7.554-6.3a2.518,2.518,0,0,0,.433-3.423L90.289,28.029a2.445,2.445,0,0,0-2.872-.9c-7.486,2.562-11.713,2.4-20.538,2.4a14.687,14.687,0,0,0-7.554,2.085,14.687,14.687,0,0,0-7.554-2.085c-8.825,0-13.052.162-20.538-2.4a2.518,2.518,0,0,0-1.023-.118Zm1.18,5.39c7.1,2.152,12.314,2.164,20.381,2.164a9.483,9.483,0,0,1,3.58.63L46.1,45.459a2.518,2.518,0,0,0-.511,2.479,7.965,7.965,0,0,0,4.446,4.879,9.373,9.373,0,0,0,4.485.59,8.512,8.512,0,0,0,3.659-1.377c1.183-.668,2.4-1.481,3.541-2.282,1.406-.988,1.829-1.368,2.6-1.967L86.708,65.486q.058.041.118.079a5.028,5.028,0,0,1,1.456,2.007,2.1,2.1,0,0,1-.59,1.692,2.227,2.227,0,0,1-1.574.551,12.326,12.326,0,0,1-1.22-.275c.33.214-.252-.165-.747-.551s-1.173-.947-1.967-1.574c-1.59-1.255-3.63-2.866-5.666-4.485-4.072-3.239-8.066-6.413-8.066-6.413A2.519,2.519,0,1,0,65.3,60.45s3.989,3.171,8.066,6.413c1.968,1.565,3.934,3.124,5.508,4.367a2.516,2.516,0,0,0-.039.354,1.921,1.921,0,0,1-1.889,2.007,1.711,1.711,0,0,1-1.023-.354c.223.159-.174-.121-.511-.393s-.8-.66-1.338-1.1c-1.083-.882-2.508-2.011-3.9-3.148-2.775-2.273-5.469-4.525-5.469-4.525a2.529,2.529,0,1,0-3.226,3.9s2.73,2.248,5.508,4.525c1.389,1.138,2.806,2.26,3.9,3.148.131.107.2.177.315.275a1.858,1.858,0,0,1-1.81,1.456,1.71,1.71,0,0,1-1.023-.354c-.017-.013-5.574-4.088-8.7-6.649a2.529,2.529,0,1,0-3.226,3.9c2.216,1.819,4.733,3.695,6.649,5.115v.511a2.8,2.8,0,0,1-.866,1.652,2.935,2.935,0,0,1-1.652.866,2.9,2.9,0,0,1-1.377-.157,6.135,6.135,0,0,0,.118-1.1,6.334,6.334,0,0,0-6.3-6.3,6.109,6.109,0,0,0-1.692.275,6.327,6.327,0,0,0-5.862-4.053h-.118a6.358,6.358,0,0,0-6.177-5.036h-.118a7.644,7.644,0,0,0-4.564-5.7L19.94,48.017Zm.236,32.381A2.518,2.518,0,1,1,29.107,67.3,2.481,2.481,0,0,1,31.625,64.778Zm7.554,6.3a1.259,1.259,0,1,1-1.259,1.259A1.223,1.223,0,0,1,39.179,71.073Zm6.3,5.036a1.259,1.259,0,1,1-1.259,1.259A1.223,1.223,0,0,1,45.474,76.109Zm7.554,3.777a1.259,1.259,0,1,1-1.259,1.259A1.223,1.223,0,0,1,53.029,79.886Z" transform="translate(-14.006 -26.976)" fill="#2f439a"/>
    </g>
  </g>
</svg>
