<svg xmlns="http://www.w3.org/2000/svg" width="59.254" height="85.46" viewBox="0 0 59.254 85.46">
  <g id="Group_2692" data-name="Group 2692" transform="translate(-14822.373 -3104)">
    <path id="Path_16603" data-name="Path 16603" d="M62.157,31.836V22.8a22.53,22.53,0,0,0-45.06,0v9A9.561,9.561,0,0,0,10,41.047V56.1a29.627,29.627,0,0,0,59.254,0V41.047A9.561,9.561,0,0,0,62.157,31.836ZM21.137,22.8a18.49,18.49,0,1,1,36.98,0v8.673H50.548V24.308a10.935,10.935,0,1,0-21.857,0v7.2H21.137Zm25.371,1.468v7.2H32.732V24.308a6.895,6.895,0,1,1,13.776,0ZM65.214,56.1a25.587,25.587,0,0,1-51.174,0V41.047a5.494,5.494,0,0,1,5.494-5.494H59.692a5.494,5.494,0,0,1,5.521,5.494Z" transform="translate(14812.373 3103.73)" fill="#2f439a"/>
    <path id="Path_16604" data-name="Path 16604" d="M36.285,31.23A16.645,16.645,0,1,0,52.93,47.875,16.645,16.645,0,0,0,36.285,31.23Zm0,29.236a12.6,12.6,0,1,1,12.6-12.591,12.6,12.6,0,0,1-12.6,12.591Z" transform="translate(14815.715 3114.463)" fill="#2f439a"/>
    <path id="Path_16605" data-name="Path 16605" d="M35.021,44.3l-.458-.175c-1.7-.633-1.98-.889-1.98-1.212s.5-.593,1.225-.593a5.211,5.211,0,0,1,.835,0l.687.162a1.764,1.764,0,0,0,2.168-1.2l.094-.31A1.778,1.778,0,0,0,36.34,38.8a6.867,6.867,0,0,0-.916-.175,2.209,2.209,0,0,0-4.4.175v.242a4.336,4.336,0,0,0-2.8,4.04,4.525,4.525,0,0,0,3.205,4.161,6.733,6.733,0,0,0,.862.35c1.6.579,1.737.916,1.737,1.212,0,.646-.875.741-1.347.741a4.364,4.364,0,0,1-.835,0,5.844,5.844,0,0,1-1.225-.31,1.764,1.764,0,0,0-2.249,1.252l-.081.337a1.751,1.751,0,0,0,1.158,2.087,10.772,10.772,0,0,0,1.576.35,2.209,2.209,0,0,0,4.4-.189v-.229a4.444,4.444,0,0,0,2.963-4.229C38.4,46.681,37.35,45.28,35.021,44.3Z" transform="translate(14818.689 3116.344)" fill="#2f439a"/>
  </g>
</svg>
