<svg xmlns="http://www.w3.org/2000/svg" xmlns:xlink="http://www.w3.org/1999/xlink" id="Layer_1" x="0px" y="0px" viewBox="0 0 151.4 50.8" style="enable-background:new 0 0 151.4 50.8;" xml:space="preserve">
<style type="text/css">
	.st0{fill:#F4F6FB;}
	.st1{fill:#ED1C24;}
</style>
<g id="Group_2" transform="translate(-735 -447.303)">
	<g id="Group_4" transform="translate(739.92 462.357)">
		<g id="Group_3" transform="translate(0 0)">
			<path id="Path_5" class="st0" d="M19.7,2.8V0h-4.6v7.3L19.7,2.8z"></path>
			<path id="Path_6" class="st0" d="M31.2,0c-3,0-5.8,1.4-7.7,3.7l-0.1,0.1l0,0l-9.5,9.5c-1.9,2.2-5.3,2.4-7.5,0.5     c-1.2-1-1.8-2.5-1.8-4v0l0,0V0H0v9.8l0,0v0c0,5.4,4.4,9.9,9.9,9.9c2.3,0,4.6-0.8,6.4-2.3L26.9,6.7c1.7-2.4,5-2.9,7.4-1.2     c2.4,1.7,2.9,5,1.2,7.4s-5,2.9-7.4,1.2c-0.8-0.6-1.4-1.3-1.8-2.2l-5,5v6.3h4.5v-5.2c4.6,2.9,10.7,1.6,13.6-2.9     c1-1.6,1.6-3.5,1.6-5.4C41,4.4,36.6,0,31.2,0z"></path>
		</g>
	</g>
	<g id="Group_5" transform="translate(789.372 459.53)">
		<path id="Path_7" class="st0" d="M7.8,5.4c2.6-0.1,5.1,1.2,6.6,3.4l-3,1.7c-1.3-1.9-4-2.4-5.9-1.1c-1.2,0.8-1.9,2.2-1.8,3.7    c0,1.2,0.4,2.3,1.2,3.2c1.7,1.7,4.4,1.7,6.1,0c0.2-0.2,0.3-0.4,0.5-0.5l3,1.7c-1.5,2.2-3.9,3.5-6.6,3.4c-4.3,0.1-7.8-3.4-7.8-7.6    C-0.1,9,3.4,5.5,7.6,5.5C7.7,5.5,7.7,5.5,7.8,5.4L7.8,5.4z"></path>
		<path id="Path_8" class="st0" d="M31.7,5.8v14.7h-3.7v-2.1c-1,1.6-2.9,2.5-4.8,2.4c-4.1,0-7.2-3.4-7.2-7.7    c-0.1-4.3,3.1-7.8,7.2-7.7c1.9-0.1,3.7,0.8,4.8,2.4V5.8L31.7,5.8L31.7,5.8z M23.8,8.7c-1.1,0-2.3,0.4-3,1.3    c-0.8,0.9-1.2,2-1.2,3.2c-0.2,2.3,1.6,4.3,3.9,4.5c0.1,0,0.2,0,0.3,0c2.4,0,4.2-1.8,4.2-4.5c0.2-2.3-1.5-4.2-3.7-4.4    C24.1,8.7,23.9,8.7,23.8,8.7L23.8,8.7z"></path>
		<path id="Path_9" class="st0" d="M43.8,20.9c-1.9,0.1-3.7-0.9-4.8-2.5v7.9h-3.7V5.8h3.7v2.1c1-1.6,2.9-2.5,4.8-2.4    c4.1-0.1,7.2,3.4,7.2,7.7C51.1,17.4,47.9,20.9,43.8,20.9z M46.3,10c-0.8-0.8-1.9-1.3-3-1.3c-2.4,0-4.1,1.8-4.1,4.5    s1.7,4.5,4.1,4.5c2.3,0,4.2-1.9,4.2-4.2c0-0.1,0-0.2,0-0.3C47.5,12,47.1,10.8,46.3,10L46.3,10z"></path>
		<path id="Path_10" class="st0" d="M57.7,20.5H54V5.8h3.7V20.5z"></path>
		<path id="Path_11" class="st0" d="M72.3,20c-1.1,0.6-2.3,0.9-3.6,0.9c-3.6,0-5.5-2.1-5.5-6.1V9.1H60V5.8h3.1V1.9h3.7v3.9h4.9v3.2    h-4.9v5.7c0,1.9,0.8,2.8,2.3,2.8c0.8,0,1.6-0.2,2.3-0.6L72.3,20z"></path>
		<path id="Path_12" class="st0" d="M89.7,5.8v14.7h-3.7v-2.1c-1,1.6-2.9,2.5-4.8,2.4c-4.1,0-7.2-3.4-7.2-7.7    c-0.1-4.3,3.1-7.8,7.2-7.7c1.9-0.1,3.7,0.8,4.8,2.4V5.8L89.7,5.8L89.7,5.8z M81.7,8.7c-1.1,0-2.3,0.4-3,1.3    c-0.8,0.9-1.2,2-1.2,3.2c-0.2,2.3,1.6,4.3,3.9,4.5c0.1,0,0.2,0,0.3,0c2.4,0,4.2-1.8,4.2-4.5c0.2-2.2-1.4-4.2-3.7-4.4    C82.1,8.7,81.9,8.7,81.7,8.7L81.7,8.7z"></path>
		<path id="Path_13" class="st0" d="M97.1,20.5h-3.7V0h3.7L97.1,20.5z"></path>
	</g>
	<circle id="Ellipse_1" class="st1" cx="845.1" cy="460.6" r="1.9"></circle>
</g>
</svg>