<svg xmlns="http://www.w3.org/2000/svg" width="151.438" height="50.835" viewBox="0 0 151.438 50.835">
  <g id="Group_9" data-name="Group 9" transform="translate(-735 -447.303)">
    <path id="Path_4" data-name="Path 4" d="M621.592,1080.135H581.644a5.433,5.433,0,0,1-5.444-5.443v-39.948a5.433,5.433,0,0,1,5.444-5.444h39.948a5.433,5.433,0,0,1,5.444,5.444v39.948A5.446,5.446,0,0,1,621.592,1080.135Z" transform="translate(158.8 -581.997)" fill="#2f439a"/>
    <g id="Group_4" data-name="Group 4" transform="translate(739.92 462.357)">
      <g id="Group_3" data-name="Group 3" transform="translate(0 0)">
        <path id="Path_5" data-name="Path 5" d="M676.664,1103.964V1101.2H672.1v7.328Z" transform="translate(-656.941 -1101.2)" fill="#fff"/>
        <path id="Path_6" data-name="Path 6" d="M630.875,1101.2a9.824,9.824,0,0,0-7.7,3.706l-.1.1.021.021-9.526,9.526a5.3,5.3,0,0,1-9.3-3.476v-.021h0V1101.2H599.7v9.84h0v.021a9.863,9.863,0,0,0,16.247,7.516l10.636-10.636a5.325,5.325,0,1,1-.544,5.276l-5,5v6.3h4.543v-5.171a9.845,9.845,0,0,0,15.179-8.291A9.9,9.9,0,0,0,630.875,1101.2Z" transform="translate(-599.7 -1101.2)" fill="#fff"/>
      </g>
    </g>
    <g id="Group_5" data-name="Group 5" transform="translate(789.372 459.53)">
      <path id="Path_7" data-name="Path 7" d="M843.683,1113.7a7.584,7.584,0,0,1,6.553,3.392l-3.015,1.7a4.258,4.258,0,0,0-7.747,2.617,4.382,4.382,0,0,0,1.172,3.161,4.325,4.325,0,0,0,6.574-.565l3.036,1.738a7.682,7.682,0,0,1-6.553,3.392,7.716,7.716,0,1,1-.021-15.431Z" transform="translate(-835.893 -1108.253)" fill="#2f439a"/>
      <path id="Path_8" data-name="Path 8" d="M927.979,1113.992v14.677h-3.748V1126.6a5.35,5.35,0,0,1-4.774,2.45c-4.1,0-7.161-3.392-7.161-7.726-.063-4.292,3.078-7.81,7.161-7.726a5.334,5.334,0,0,1,4.774,2.429v-2.052h3.748Zm-7.914,2.868a4.012,4.012,0,0,0-3.036,1.277,4.6,4.6,0,0,0-1.151,3.182,4.192,4.192,0,0,0,4.166,4.481c2.429,0,4.167-1.78,4.167-4.481A4.091,4.091,0,0,0,920.064,1116.86Z" transform="translate(-896.299 -1108.172)" fill="#2f439a"/>
      <path id="Path_9" data-name="Path 9" d="M1013.28,1129.046a5.359,5.359,0,0,1-4.774-2.491v7.914H1004.8v-20.5h3.706v2.073a5.35,5.35,0,0,1,4.774-2.45c4.1-.084,7.223,3.434,7.161,7.726C1020.524,1125.612,1017.383,1129.109,1013.28,1129.046Zm2.429-10.908a4.013,4.013,0,0,0-3.036-1.277c-2.429,0-4.146,1.78-4.146,4.481s1.717,4.48,4.146,4.48a4.212,4.212,0,0,0,4.208-4.48A4.483,4.483,0,0,0,1015.708,1118.138Z" transform="translate(-969.436 -1108.172)" fill="#2f439a"/>
      <path id="Path_10" data-name="Path 10" d="M1097.406,1130.177H1093.7V1115.5h3.706Z" transform="translate(-1039.723 -1109.68)" fill="#2f439a"/>
      <path id="Path_11" data-name="Path 11" d="M1134.99,1114.948a7.152,7.152,0,0,1-3.6.9c-3.622,0-5.548-2.073-5.548-6.114v-5.695H1122.7v-3.245h3.141V1096.9h3.706v3.894h4.878v3.245h-4.878v5.674c0,1.863.8,2.847,2.324,2.847a4.869,4.869,0,0,0,2.3-.565Z" transform="translate(-1062.651 -1094.974)" fill="#2f439a"/>
      <path id="Path_12" data-name="Path 12" d="M1204.878,1113.992v14.677h-3.748V1126.6a5.35,5.35,0,0,1-4.774,2.45c-4.1,0-7.16-3.392-7.16-7.726-.063-4.292,3.078-7.81,7.16-7.726a5.334,5.334,0,0,1,4.774,2.429v-2.052h3.748Zm-7.914,2.868a4.012,4.012,0,0,0-3.036,1.277,4.6,4.6,0,0,0-1.152,3.182,4.192,4.192,0,0,0,4.167,4.481c2.429,0,4.166-1.78,4.166-4.481A4.079,4.079,0,0,0,1196.964,1116.86Z" transform="translate(-1115.224 -1108.172)" fill="#2f439a"/>
      <path id="Path_13" data-name="Path 13" d="M1285.506,1108.2H1281.8v-20.5h3.706Z" transform="translate(-1188.44 -1087.7)" fill="#2f439a"/>
    </g>
    <circle id="Ellipse_1" data-name="Ellipse 1" cx="1.863" cy="1.863" r="1.863" transform="translate(843.245 458.693)" fill="#ed1c24"/>
  </g>
</svg>
