<svg xmlns="http://www.w3.org/2000/svg" width="50.779" height="86.92" viewBox="0 0 50.779 86.92">
  <g id="noun_One_Finger_Click_2060467" data-name="noun_One Finger Click_2060467" transform="translate(-10.395 0)">
    <g id="Group_2591" data-name="Group 2591" transform="translate(10.395 0)">
      <path id="Path_16599" data-name="Path 16599" d="M40.65,5.545l-4.532,4.529a1.535,1.535,0,0,0,2.173,2.17L42.82,7.715a1.534,1.534,0,0,0-2.17-2.17m-12.8-4.031V7.92a1.535,1.535,0,1,0,3.07,0V1.514A1.535,1.535,0,0,0,27.847,1.514Zm-11.9,6.2,4.53,4.529a1.534,1.534,0,0,0,2.17-2.17l-4.53-4.529A1.534,1.534,0,0,0,15.942,7.717Zm-4.03,9.733a1.534,1.534,0,0,0,0,3.068h6.406a1.533,1.533,0,1,0,0-3.067H11.913ZM35.251,36.359c0-3.849,5.857-3.851,5.857,0v11.2a1.534,1.534,0,0,0,3.068,0l0-7.108c0-3.567,5.429-3.564,5.427.007l0,7.925a1.536,1.536,0,0,0,3.072,0c0-2.561-.648-6.531,2.715-6.531a2.714,2.714,0,0,1,2.712,2.7L58.071,61c.083,7.141-.508,8.5-3.107,15.058A54.591,54.591,0,0,0,52.3,83.849H28.6c-5.227-11.529-6.983-8.821-9.841-22.344a43.949,43.949,0,0,0-1.851-7.014c-.737-1.8-1.034-4.469-.315-5.207.69-.7,4.186.735,5.82,4.6l.836,4.605a1.536,1.536,0,0,0,3.072,0V18.556c0-3.847,5.853-3.852,5.853,0V46.541c0,1.766,3.07,2.536,3.07-.522v-9.66Zm0-17.8c0-7.892-12-7.891-12,0V49.4c-5.879-6.747-12.84-2.729-9.184,6.251,2.474,6.076,1.274,11.91,7.268,21.247A57.889,57.889,0,0,1,26.208,86a1.533,1.533,0,0,0,1.4.916H53.567a1.538,1.538,0,0,0,1.518-1.3c.635-4.124,3.75-10.342,5.144-15.065,1.151-3.894.927-7.748.9-11.64l.045-14.345a5.761,5.761,0,0,0-8.589-5.027,5.734,5.734,0,0,0-8.5-4.106,5.95,5.95,0,0,0-8.835-4.278v-12.6Zm11.6-1.106H40.443a1.534,1.534,0,0,0,0,3.068h6.41A1.534,1.534,0,0,0,46.851,17.45Z" transform="translate(-10.395 0)" fill="#2f439a" fill-rule="evenodd"/>
    </g>
  </g>
</svg>
