<?xml version="1.0" encoding="UTF-8"?>
<svg id="Layer_2" data-name="Layer 2" xmlns="http://www.w3.org/2000/svg" viewBox="0 0 56.5 55.38">
  <defs>
    <style>
      .cls-1 {
        fill: #2f439b;
        stroke: #fff;
        stroke-miterlimit: 10;
        stroke-width: .5px;
      }
    </style>
  </defs>
  <g id="Layer_1-2" data-name="Layer 1">
    <path class="cls-1" d="M37.49,14.47c-1.3,.58-2.28,1.72-2.56,3.06-1.23-.34-2.49-.23-3.61,.4-1.12,.63-1.88,1.64-2.22,2.87-1.23-.34-2.49-.23-3.61,.4-.67,.38-1.17,.8-1.54,1.45l-5.47-9.76c-1.19-2.13-3.77-3.05-5.92-2.14-2.48,1.1-3.43,4.13-2.11,6.49l8.87,15.81-5.78-1.63c-2.28-.64-5.09,.64-5.73,2.92-.34,1.23-.34,2.55,.29,3.67,.63,1.12,1.64,1.88,2.87,2.22l17.33,4.88c1.75,.49,3.18,1.46,3.93,2.81l3.65,6.51c.38,.67,1.08,.87,1.75,.49l17.95-10.06c.67-.38,.87-1.08,.49-1.75l-3.46-6.17c-.75-1.35-1.17-2.88-1.25-4.6-.07-1.44-.5-3.26-1.13-4.38l-6.48-11.55c-1.53-1.94-4.17-2.97-6.25-1.95Zm10.15,14.95c.38,.67,.84,2.03,.9,3.18,.05,2.19,.65,4.06,1.6,5.74l2.83,5.05-15.7,8.8-3.08-5.5c-1.13-2.02-3.1-3.42-5.55-4.11l-17.33-4.88c-1.29-.46-1.68-1.42-1.33-2.64,.52-1.18,1.54-1.45,2.71-1.22l8.75,2.46c.53,.15,1.04,0,1.36-.47,.32-.48,.36-.94,.11-1.39L12.52,15.94c-.57-1.01-.17-2.41,1.01-2.93,.96-.39,2.07,.02,2.64,1.03l7.48,13.35c.38,.67,1.08,.87,1.75,.49s.87-1.08,.49-1.75c-.57-1.01-.22-2.23,.79-2.8,1.01-.57,2.23-.22,2.8,.79,.38,.67,1.08,.87,1.75,.49s.87-1.08,.49-1.75c-.57-1.01-.22-2.23,.79-2.8,1.01-.57,2.3-.11,2.8,.79,.38,.67,1.08,.87,1.75,.49s.87-1.08,.49-1.75c-.57-1.01-.17-2.41,1.01-2.93,.96-.39,2.07,.02,2.64,1.03l6.54,11.66-.11,.06ZM10.05,7.6c.67-.38,.87-1.08,.49-1.75l-2.14-3.81c-.38-.67-1.08-.87-1.75-.49-.67,.38-.87,1.08-.49,1.75l2.14,3.81c.38,.67,1.19,.81,1.75,.49Zm9.04,2.45c.38,.67,1.08,.87,1.75,.49l3.81-2.14c.67-.38,.87-1.08,.49-1.75s-1.08-.87-1.75-.49l-3.81,2.14c-.67,.38-.81,1.19-.49,1.75ZM3.23,20.41l3.81-2.14c.67-.38,.87-1.08,.49-1.75s-1.08-.87-1.75-.49l-3.81,2.14c-.67,.38-.87,1.08-.49,1.75s1.19,.81,1.75,.49ZM16.12,6.85c.34-.19,.5-.43,.6-.78l1.18-4.2c.2-.7-.18-1.37-.88-1.57s-1.37,.18-1.57,.88l-1.18,4.2c-.2,.7,.18,1.37,.88,1.57,.24,.16,.64,.08,.97-.1ZM5.38,12.42c.35,.1,.75,.02,.97-.1,.34-.19,.5-.43,.6-.78,.2-.7-.18-1.37-.88-1.57l-4.2-1.18c-.7-.2-1.37,.18-1.57,.88s.18,1.37,.88,1.57l4.2,1.18Z"/>
  </g>
</svg>