<svg xmlns="http://www.w3.org/2000/svg" width="93.492" height="67.049" viewBox="0 0 93.492 67.049">
  <g id="noun_loss_2211166" transform="translate(-4.5 -12.28)">
    <path id="Path_16600" data-name="Path 16600" d="M20.161,41.2A9.827,9.827,0,0,0,23.34,42.95a37.03,37.03,0,0,0,3.638,1V55.36h-.221a23.362,23.362,0,0,1-3.91-.34,20.336,20.336,0,0,1-3.332-.816c-.918-.323-1.717-.646-2.4-.952V58.76a8.838,8.838,0,0,0,1.683.765,20.608,20.608,0,0,0,2.38.646A26.561,26.561,0,0,0,24,60.613a29.308,29.308,0,0,0,2.975.153v4h4.165V60.426a16.376,16.376,0,0,0,4.25-1.292,11.254,11.254,0,0,0,3.247-2.278,9.329,9.329,0,0,0,2.074-3.23,11.451,11.451,0,0,0,.731-4.131,10.494,10.494,0,0,0-.9-4.641A8.513,8.513,0,0,0,38.181,41.9a10.664,10.664,0,0,0-3.315-1.751c-1.224-.408-2.465-.765-3.74-1.054V27.785a23.7,23.7,0,0,1,4.658.714c1.411.374,2.771.816,4.1,1.309V24.266A22.77,22.77,0,0,0,35.9,23.025a32.461,32.461,0,0,0-4.777-.646V18.35H26.961V22.5a13.129,13.129,0,0,0-4,1.156,10.1,10.1,0,0,0-3.128,2.278,10.257,10.257,0,0,0-2.04,3.315,11.769,11.769,0,0,0-.748,4.267,11.266,11.266,0,0,0,.85,4.675A8.175,8.175,0,0,0,20.161,41.2Zm10.965,3.468a16.259,16.259,0,0,1,2.21.663,6.649,6.649,0,0,1,1.683.935,3.765,3.765,0,0,1,1.088,1.343,4.379,4.379,0,0,1,.374,1.938,5.1,5.1,0,0,1-.425,2.193A4.874,4.874,0,0,1,34.9,53.32a5.412,5.412,0,0,1-1.7,1.054,12.843,12.843,0,0,1-2.074.646V44.667ZM26.978,27.955V38.291a7.982,7.982,0,0,1-3.757-1.734,4.208,4.208,0,0,1-1.207-3.247C22,30.267,23.663,28.482,26.978,27.955Z" transform="translate(8.785 4.249)" fill="#2f439a"/>
    <path id="Path_16601" data-name="Path 16601" d="M38.025,79.329A33.525,33.525,0,1,0,4.5,45.8,33.56,33.56,0,0,0,38.025,79.329Zm0-63.649A30.125,30.125,0,1,1,7.9,45.8,30.161,30.161,0,0,1,38.025,15.68Z" transform="translate(0 0)" fill="#2f439a"/>
    <path id="Path_16602" data-name="Path 16602" d="M61.911,17.4H53.139a1.705,1.705,0,0,0-1.7,1.7V44.652h-3.4a1.7,1.7,0,0,0-1.445.8,1.677,1.677,0,0,0-.068,1.649l9.486,18.989a1.7,1.7,0,0,0,1.513.935,1.68,1.68,0,0,0,1.513-.935L68.524,47.1a1.721,1.721,0,0,0-.068-1.649,1.7,1.7,0,0,0-1.445-.8h-3.4V19.1A1.705,1.705,0,0,0,61.911,17.4Zm2.346,30.652L57.508,61.533,50.759,48.052h2.363a1.705,1.705,0,0,0,1.7-1.7V20.8h5.372V46.352a1.705,1.705,0,0,0,1.7,1.7Z" transform="translate(29.291 3.584)" fill="#2f439a"/>
  </g>
</svg>
