<?xml version="1.0" encoding="UTF-8"?>
<svg id="Layer_2" data-name="Layer 2" xmlns="http://www.w3.org/2000/svg" viewBox="0 0 55.45 56.98">
  <defs>
    <style>
      .cls-1 {
        fill: none;
        stroke: #2f439b;
        stroke-width: 2px;
      }

      .cls-1, .cls-2 {
        stroke-miterlimit: 10;
      }

      .cls-2 {
        fill: #2f439b;
        stroke: #fff;
      }
    </style>
  </defs>
  <g id="Layer_1-2" data-name="Layer 1">
    <g>
      <path class="cls-2" d="M27.73,18.17c-.79,0-1.43,.66-1.43,1.47v1.47c-2.37,0-4.3,1.98-4.3,4.42s1.92,4.42,4.3,4.42h2.87c.79,0,1.43,.66,1.43,1.47s-.64,1.47-1.43,1.47h-4.3c-.79,0-1.43,.66-1.43,1.47s.64,1.47,1.43,1.47h1.43v1.47c0,.81,.64,1.47,1.43,1.47s1.43-.66,1.43-1.47v-1.47c2.37,0,4.3-1.98,4.3-4.42s-1.92-4.42-4.3-4.42h-2.87c-.79,0-1.43-.66-1.43-1.47s.64-1.47,1.43-1.47h4.18c.79,0,1.43-.66,1.43-1.47s-.64-1.47-1.43-1.47h-1.32v-1.47c0-.81-.64-1.47-1.43-1.47Z"/>
      <path class="cls-2" d="M48.03,9.84C39.06-.49,24.32-2.36,13.29,4.76l.6-2.07c.05-.11,.09-.22,.11-.33,.16-.8-.33-1.58-1.1-1.75-.77-.17-1.54,.34-1.7,1.14l-2.09,6.48c-.03,.07-.05,.13-.06,.2-.18,.78,.28,1.56,1.04,1.74h.08c.12,.03,.25,.06,.38,.06h6.65c.79,0,1.43-.66,1.43-1.47s-.64-1.47-1.43-1.47h-2.44c3.85-2.48,8.31-3.84,12.91-3.85,13.47-.02,24.41,11.19,24.43,25.04,.01,3.99-.91,7.92-2.69,11.47,0,.01-.01,.02-.02,.03-.35,.71-.07,1.58,.62,1.94,.2,.12,.43,.18,.66,.18,.53,0,1.02-.31,1.26-.8,2.01-3.96,3.05-8.36,3.04-12.82,0-6.88-2.47-13.52-6.92-18.65Z"/>
      <path class="cls-2" d="M46,47.02c-.42-.38-1-.44-1.48-.23h-6.24c-.79,0-1.43,.66-1.43,1.47s.64,1.47,1.43,1.47h2.35c-3.83,2.45-8.26,3.78-12.83,3.79-13.47,.02-24.41-11.19-24.43-25.04-.01-3.99,.91-7.92,2.69-11.47,.24-.64,.02-1.35-.53-1.74-.65-.46-1.54-.29-1.99,.38C1.53,19.62,.49,24.02,.5,28.48c.02,15.46,12.2,27.98,27.23,28,5.14,0,10.15-1.5,14.45-4.28l-.7,2.16s0,.02-.01,.04c-.24,.76,.16,1.57,.9,1.82h.46c.59,.02,1.13-.35,1.35-.91l2.05-6.36c.4-.61,.32-1.43-.23-1.92Z"/>
      <circle class="cls-1" cx="27.73" cy="28.31" r="17.68"/>
    </g>
  </g>
</svg>