<svg id="Group_2566" data-name="Group 2566" xmlns="http://www.w3.org/2000/svg" width="41.264" height="70.422" viewBox="0 0 41.264 70.422">
  <path id="Path_16527" data-name="Path 16527" d="M44.587,0H9.926a3.311,3.311,0,0,0-3.3,3.3v63.82a3.311,3.311,0,0,0,3.3,3.3H44.587a3.311,3.311,0,0,0,3.3-3.3V3.3A3.311,3.311,0,0,0,44.587,0Zm-1.1,4.4V6.6H11.026V4.4Zm0,6.6V55.464H11.026V11ZM11.026,66.021V59.866h32.46v6.155Z" transform="translate(-6.625)" fill="#2f439a"/>
  <circle id="Ellipse_1928" data-name="Ellipse 1928" cx="2.245" cy="2.245" r="2.245" transform="translate(18.387 60.698)" fill="#2f439a"/>
  <rect id="Rectangle_3540" data-name="Rectangle 3540" width="4.401" height="16.666" transform="translate(10.178 33.834)" fill="#2f439a"/>
  <rect id="Rectangle_3541" data-name="Rectangle 3541" width="4.401" height="25.519" transform="translate(18.431 24.982)" fill="#2f439a"/>
  <rect id="Rectangle_3542" data-name="Rectangle 3542" width="4.401" height="34.544" transform="translate(26.684 15.955)" fill="#2f439a"/>
</svg>
