<?xml version="1.0" encoding="UTF-8"?>
<svg id="Layer_2" data-name="Layer 2" xmlns="http://www.w3.org/2000/svg" viewBox="0 0 36 36">
  <defs>
    <style>
      .cls-1 {
        fill: #2f439a;
      }

      .cls-2 {
        fill: none;
      }
    </style>
  </defs>
  <g id="Layer_1-2" data-name="Layer 1">
    <g>
      <path class="cls-2" d="M0,0H36V36H0V0Z"/>
      <path class="cls-1" d="M24.79,16.31c-.14-.19-.36-.3-.59-.31H11.81c-.23,0-.45,.11-.6,.3l-6.21,8.06c-.1,.13-.16,.29-.16,.46v3.72c0,1.78,1.44,3.23,3.22,3.23H27.91c1.78,0,3.23-1.44,3.23-3.22h0v-3.72c0-.17-.05-.33-.16-.46l-6.19-8.05Zm3.12,13.95H8.09c-.95,0-1.72-.77-1.72-1.73v-3.46l5.81-7.57h11.65l5.81,7.57v3.46c0,.95-.77,1.72-1.73,1.73Z"/>
      <path class="cls-1" d="M18,19.11c-2.47,0-4.47,2-4.47,4.47s2,4.47,4.47,4.47,4.47-2,4.47-4.47-2-4.47-4.47-4.47h0Zm0,7.43c-1.64,0-2.97-1.33-2.96-2.97,0-1.64,1.33-2.97,2.96-2.97s2.97,1.33,2.97,2.97c0,1.64-1.33,2.96-2.97,2.97Z"/>
      <path class="cls-1" d="M31.5,8.76C23.5,2.76,12.5,2.76,4.5,8.76c-.9,.68-1.14,1.92-.58,2.9l1.96,3.34c.55,.93,1.69,1.33,2.69,.94l4.5-1.73c.94-.35,1.53-1.3,1.42-2.3l-.23-2.11c2.47-.54,5.03-.54,7.5,0l-.27,2.08c-.11,1,.47,1.95,1.41,2.31l4.5,1.73c.25,.1,.52,.14,.8,.15,.78,0,1.51-.4,1.91-1.07l1.95-3.32c.58-.97,.34-2.23-.57-2.91Zm-8.19,.55c.04-.37-.2-.72-.57-.81-3.12-.81-6.38-.81-9.5,0-.36,.09-.6,.44-.56,.81l.31,2.73c.03,.32-.15,.63-.45,.74l-4.5,1.73c-.32,.12-.69,0-.87-.3l-1.95-3.32c-.19-.31-.11-.72,.18-.94,7.46-5.59,17.72-5.59,25.18,0,.29,.22,.37,.63,.18,.94l-1.95,3.32c-.18,.3-.54,.43-.87,.31l-4.5-1.73c-.3-.12-.49-.42-.45-.74l.31-2.74Z"/>
    </g>
  </g>
</svg>