<?xml version="1.0" encoding="UTF-8"?>
<svg id="Layer_2" data-name="Layer 2" xmlns="http://www.w3.org/2000/svg" viewBox="0 0 36 36">
  <defs>
    <style>
      .cls-1 {
        fill: #2f439a;
      }

      .cls-2 {
        fill: none;
      }
    </style>
  </defs>
  <g id="Layer_1-2" data-name="Layer 1">
    <g>
      <path class="cls-2" d="M0,0H36V36H0V0Z"/>
      <path class="cls-1" d="M20,3.12c-3.79-.02-7.43,1.46-10.13,4.11-2.39,2.36-3.73,5.57-3.73,8.92,.03,.27,.32,2.72-.84,4.06-.59,.64-1.44,.97-2.3,.91-.48,0-.87,.39-.88,.88,0,2.6,1.93,4.5,5.74,5.61l.22,.07,.09-.21c.15-.38,.36-.73,.61-1.05l.24-.3-.37-.1c-2.59-.71-4.16-1.75-4.62-3.08l-.03-.14,.14-.02c.97-.17,1.86-.67,2.5-1.42,1.4-1.64,1.36-4.05,1.28-5l-.04-.16v-.2c0-6.14,5.43-11.12,12.12-11.12s12.12,4.99,12.12,11.12c-.06,3.88-2.17,7.44-5.56,9.35l-.32,.18,.28,.23c.32,.25,.6,.54,.83,.88l.14,.19,.2-.12c3.78-2.25,6.11-6.3,6.17-10.7,0-7.1-6.23-12.88-13.88-12.88Z"/>
      <path class="cls-1" d="M20.31,27.12h-.37c-1.5,0-2.76-.03-3.91-.09h-.4l.15,.37c.16,.38,.27,.78,.31,1.19v.21h.22c1,.05,2.07,.08,3.31,.08h.23v-.23c.03-.4,.13-.8,.28-1.17l.18-.36Z"/>
      <path class="cls-1" d="M27.63,27.63l-.09-.21-.03-.14-.02-.05-.03-.07-.07-.11-.06-.1-.05-.06v-.05l-.09-.13-.18-.17c-.17-.2-.36-.39-.57-.55h.04l-.35-.23h.03l-.47-.27,.03-.02-.5-.16-.11-.04c-1.37-.4-2.85-.02-3.86,1l-.08,.09-.33,.37h.03v.03c-.07,.09-.12,.19-.17,.3l-.07,.12-.2,.4h.03c-.09,.24-.16,.49-.2,.75l-.02,.22v.8l.02,.23c.35,2.11,2.35,3.53,4.46,3.18,2.11-.35,3.53-2.35,3.18-4.46-.04-.25-.11-.49-.19-.72l-.06,.05Zm-3.63,3.5c-1.09,0-2-.83-2.1-1.91v-.35c.03-.41,.18-.8,.43-1.12,.07-.1,.15-.19,.24-.27,.39-.37,.9-.58,1.43-.59,.17,0,.34,.02,.5,.06,.11,.02,.23,.06,.33,.1,.18,.08,.35,.18,.5,.31v.02c.16,.13,.31,.29,.42,.46,.07,.1,.12,.2,.17,.32,.13,.27,.19,.56,.19,.85,0,1.17-.95,2.12-2.12,2.13h0Z"/>
      <path class="cls-1" d="M15.88,29.02v-.53l-.03-.2c-.06-.27-.16-.54-.27-.8h.03l-.22-.39h.05l-.34-.44-.02-.03h.04l-.35-.35-.09-.09c-1.21-1.16-3.03-1.4-4.5-.59l-.1,.07-.44,.26h.03l-.42,.33h.04l-.3,.31c-.16,.21-.3,.43-.41,.67l-.09,.2-.06,.15v.05l-.03,.08-.03,.1-.04,.14v.12l-.03,.14-.05,.24c-.02,.17-.04,.33-.04,.5-.01,2.14,1.71,3.88,3.85,3.89,1.96,0,3.62-1.45,3.86-3.39v-.42h-.04Zm-3.88,2.1c-1.17,0-2.12-.95-2.12-2.12,0-.14,.01-.28,.04-.42,.03-.12,.06-.23,.1-.34,.06-.17,.15-.32,.25-.47l.08-.1,.03-.05c.12-.14,.25-.27,.4-.38,.1-.06,.2-.12,.31-.17,.75-.36,1.65-.24,2.27,.32,.09,.08,.17,.16,.25,.25,.26,.31,.43,.7,.48,1.1v.14s0,.06,0,.08v.14c-.07,1.11-.98,1.98-2.09,2Z"/>
      <path class="cls-1" d="M16.92,13c0-.49-.41-.88-.89-.88,0,0-.01,0-.02,0-.47,0-.85,.4-.85,.87,0,0,0,0,0,0,0,.49,.39,.88,.88,.88,.49,0,.88-.39,.88-.88Z"/>
      <path class="cls-1" d="M24.92,13c0-.49-.41-.88-.89-.88,0,0-.01,0-.02,0-.47,0-.85,.4-.85,.87,0,0,0,0,0,0,0,.48,.4,.87,.89,.88,.48,0,.87-.39,.88-.88Z"/>
      <path class="cls-1" d="M14.81,17.15c-.23,.05-.43,.19-.55,.39-.12,.19-.17,.43-.11,.66,.72,3.23,3.93,5.27,7.17,4.54,2.27-.51,4.04-2.28,4.54-4.54,.1-.47-.19-.94-.67-1.04-.47-.1-.94,.19-1.04,.66h0c-.52,2.29-2.79,3.72-5.08,3.21-1.6-.36-2.84-1.61-3.21-3.21-.05-.23-.19-.43-.39-.55-.2-.12-.43-.16-.65-.12Z"/>
    </g>
  </g>
</svg>